<svg width="20" height="20" viewBox="0 0 20 20" fill="none" xmlns="http://www.w3.org/2000/svg">
<path d="M15.8969 8.74247H17.4866C17.4866 4.66502 14.4082 1.58984 10.3252 1.58984V3.17949C13.5538 3.17949 15.8969 5.51866 15.8969 8.74247Z" fill="white"/>
<path d="M10.3327 6.35906C12.0043 6.35906 12.7172 7.07202 12.7172 8.74353H14.3069C14.3069 6.18023 12.8961 4.76941 10.3327 4.76941V6.35906ZM13.0526 10.6853C12.8999 10.5465 12.6992 10.4724 12.4929 10.4788C12.2866 10.4852 12.0909 10.5715 11.947 10.7195L10.045 12.6755C9.5872 12.5881 8.66679 12.3012 7.71936 11.3561C6.77193 10.4079 6.485 9.48511 6.39995 9.03047L8.35443 7.12766C8.50259 6.98389 8.58901 6.78812 8.59539 6.58178C8.60177 6.37543 8.52761 6.17469 8.3886 6.02206L5.45173 2.79268C5.31267 2.63957 5.1194 2.54669 4.91296 2.53378C4.70652 2.52087 4.50318 2.58894 4.34613 2.72353L2.62136 4.2027C2.48394 4.34062 2.40192 4.52417 2.39086 4.71854C2.37894 4.91725 2.15162 9.6242 5.80145 13.2756C8.98552 16.4589 12.9739 16.6918 14.0724 16.6918C14.2329 16.6918 14.3315 16.687 14.3577 16.6854C14.5521 16.6745 14.7355 16.5922 14.8728 16.4541L16.3512 14.7286C16.4859 14.5716 16.5541 14.3683 16.5413 14.1619C16.5285 13.9555 16.4358 13.7621 16.2828 13.623L13.0526 10.6853Z" fill="white"/>
</svg>
