<svg width="20" height="20" viewBox="0 0 20 20" fill="none" xmlns="http://www.w3.org/2000/svg">
<path d="M9.53827 1.19238C7.79979 1.19443 6.13311 1.88595 4.90382 3.11524C3.67453 4.34453 2.98301 6.01121 2.98096 7.74968C2.97888 9.17037 3.44294 10.5525 4.30196 11.6841C4.30196 11.6841 4.4808 11.9195 4.51001 11.9535L9.53827 17.8837L14.5689 11.9505C14.5951 11.9189 14.7746 11.6841 14.7746 11.6841L14.7752 11.6823C15.6338 10.5512 16.0976 9.16972 16.0956 7.74968C16.0935 6.01121 15.402 4.34453 14.1727 3.11524C12.9434 1.88595 11.2767 1.19443 9.53827 1.19238ZM9.53827 10.1342C9.06666 10.1342 8.60565 9.99431 8.21352 9.7323C7.8214 9.47029 7.51577 9.09789 7.3353 8.66218C7.15482 8.22648 7.1076 7.74704 7.19961 7.2845C7.29161 6.82195 7.51871 6.39708 7.85219 6.06361C8.18566 5.73013 8.61054 5.50303 9.07308 5.41103C9.53562 5.31902 10.0151 5.36624 10.4508 5.54672C10.8865 5.72719 11.2589 6.03282 11.5209 6.42494C11.7829 6.81707 11.9227 7.27808 11.9227 7.74968C11.922 8.38184 11.6705 8.98789 11.2235 9.43489C10.7765 9.8819 10.1704 10.1334 9.53827 10.1342Z" fill="white"/>
</svg>
