<svg width="24" height="25" viewBox="0 0 24 25" fill="none" xmlns="http://www.w3.org/2000/svg">
<path d="M21.8719 1.40576H2.13C1.4538 1.40576 0.905624 1.95393 0.905624 2.63014V22.372C0.905624 23.0482 1.4538 23.5964 2.13 23.5964H21.8719C22.5481 23.5964 23.0962 23.0482 23.0962 22.372V2.63014C23.0962 1.95393 22.5481 1.40576 21.8719 1.40576Z" fill="#3D5A98"/>
<path d="M16.215 23.5943V15.0012H19.0988L19.53 11.6524H16.215V9.51492C16.215 8.54555 16.485 7.88367 17.8744 7.88367H19.6481V4.88367C18.7892 4.79432 17.9261 4.75176 17.0625 4.75617C14.5088 4.75617 12.75 6.31242 12.75 9.18305V11.6524H9.86626V15.0012H12.75V23.5943H16.215Z" fill="white"/>
</svg>
